# xmcd
#
# Track frame offsets: 
#        150
#        17582
#        29434
#        54112
#        69180
#        82772
#        104745
#        124855
#        137617
#        147610
#        179178
#
# Disc length: 2554 seconds
#
# Revision: 1
# Processed by: cddbd v1.5.2PL0 Copyright (c) Steve Scherf et al.
# Submitted via: ExactAudioCopy v0.99pb5
#
DISCID=9709f80b
DTITLE=Dad Horse Experience, The - Too Close To Heaven
DYEAR=2008
DGENRE=Gospel
TTITLE0=Through The Hole
TTITLE1=Gates Of Heaven
TTITLE2=Falling
TTITLE3=Lord Must Fix My Soul
TTITLE4=Schwarz Gruen Weiss
TTITLE5=Were U There (In Bookholzberg)
TTITLE6=Find My Body Down
TTITLE7=Dried Out River
TTITLE8=Away
TTITLE9=Reach Out Your Hand
TTITLE10=Too Close To Heaven
EXTD=YEAR: 2008
EXTT0=
EXTT1=
EXTT2=
EXTT3=
EXTT4=
EXTT5=
EXTT6=
EXTT7=
EXTT8=
EXTT9=
EXTT10=
PLAYORDER=
